<svg xmlns="http://www.w3.org/2000/svg" xmlns:xlink="http://www.w3.org/1999/xlink" version="1.1" width="800" height="500" viewBox="0 0 800 500">
  <!-- Styles -->
  <defs>
    <style type="text/css">
      .functional { fill: #e8f5e9; stroke: #388e3c; stroke-width: 2; }
      .class { fill: #e1f5fe; stroke: #0288d1; stroke-width: 2; }
      .props { fill: #fff9c4; stroke: #fbc02d; stroke-width: 2; }
      .arrow { stroke: #616161; stroke-width: 2; fill: none; marker-end: url(#arrowhead); }
      .label { font-family: Arial; font-size: 14px; fill: #424242; }
      .title { font-family: Arial; font-size: 16px; font-weight: bold; fill: #212121; }
      .code { font-family: 'Courier New'; font-size: 12px; fill: #212121; }
    </style>
    <marker id="arrowhead" markerWidth="10" markerHeight="7" refX="9" refY="3.5" orient="auto">
      <polygon points="0 0, 10 3.5, 0 7" fill="#616161" />
    </marker>
  </defs>
  
  <!-- Title -->
  <text x="400" y="30" text-anchor="middle" class="title" style="font-size: 24px;">Functional vs Class Components: Props Handling</text>
  
  <!-- Functional Component Side -->
  <rect x="50" y="70" width="300" height="50" rx="5" ry="5" class="functional" />
  <text x="200" y="100" text-anchor="middle" class="title">Functional Component</text>
  
  <!-- Class Component Side -->
  <rect x="450" y="70" width="300" height="50" rx="5" ry="5" class="class" />
  <text x="600" y="100" text-anchor="middle" class="title">Class Component</text>
  
  <!-- Parent Components -->
  <rect x="100" y="150" width="200" height="70" rx="5" ry="5" class="props" />
  <text x="200" y="180" text-anchor="middle" class="title">Parent Component</text>
  <text x="200" y="200" text-anchor="middle" class="code">&lt;User name="Akshay" /&gt;</text>
  
  <rect x="500" y="150" width="200" height="70" rx="5" ry="5" class="props" />
  <text x="600" y="180" text-anchor="middle" class="title">Parent Component</text>
  <text x="600" y="200" text-anchor="middle" class="code">&lt;UserClass name="Gurpreet" /&gt;</text>
  
  <!-- Component Definitions -->
  <rect x="50" y="250" width="300" height="120" rx="5" ry="5" class="functional" />
  <text x="200" y="275" text-anchor="middle" class="title">Functional Component Definition</text>
  <text x="200" y="300" text-anchor="middle" class="code">const User = (props) => {</text>
  <text x="200" y="320" text-anchor="middle" class="code">  return (</text>
  <text x="200" y="340" text-anchor="middle" class="code">    &lt;h2&gt;Name: {props.name}&lt;/h2&gt;</text>
  <text x="200" y="360" text-anchor="middle" class="code">  );</text>
  <text x="200" y="380" text-anchor="middle" class="code">}</text>
  
  <rect x="450" y="250" width="300" height="180" rx="5" ry="5" class="class" />
  <text x="600" y="275" text-anchor="middle" class="title">Class Component Definition</text>
  <text x="600" y="300" text-anchor="middle" class="code">class UserClass extends React.Component {</text>
  <text x="600" y="320" text-anchor="middle" class="code">  constructor(props) {</text>
  <text x="600" y="340" text-anchor="middle" class="code">    super(props);</text>
  <text x="600" y="360" text-anchor="middle" class="code">  }</text>
  <text x="600" y="380" text-anchor="middle" class="code">  render() {</text>
  <text x="600" y="400" text-anchor="middle" class="code">    return (</text>
  <text x="600" y="420" text-anchor="middle" class="code">      &lt;h2&gt;Name: {this.props.name}&lt;/h2&gt;</text>
  <text x="600" y="440" text-anchor="middle" class="code">    );</text>
  <text x="600" y="460" text-anchor="middle" class="code">  }</text>
  <text x="600" y="480" text-anchor="middle" class="code">}</text>
  
  <!-- Arrows -->
  <path d="M 200 220 L 200 250" class="arrow" />
  <text x="220" y="235" text-anchor="start" class="label">Props passed as parameter</text>
  
  <path d="M 600 220 L 600 250" class="arrow" />
  <text x="620" y="235" text-anchor="start" class="label">Props passed to constructor</text>
  
  <!-- Key Differences -->
  <rect x="50" y="450" width="300" height="30" rx="5" ry="5" fill="#e8f5e9" stroke="#388e3c" stroke-width="2" />
  <text x="200" y="470" text-anchor="middle" class="code">Access: props.name</text>
  
  <rect x="450" y="450" width="300" height="30" rx="5" ry="5" fill="#e1f5fe" stroke="#0288d1" stroke-width="2" />
  <text x="600" y="470" text-anchor="middle" class="code">Access: this.props.name</text>
</svg>