<svg xmlns="http://www.w3.org/2000/svg" xmlns:xlink="http://www.w3.org/1999/xlink" version="1.1" width="800" height="500" viewBox="0 0 800 500">
  <!-- Styles -->
  <defs>
    <style type="text/css">
      .component { fill: #e1f5fe; stroke: #0288d1; stroke-width: 2; }
      .props { fill: #fff9c4; stroke: #fbc02d; stroke-width: 2; }
      .state { fill: #f3e5f5; stroke: #9c27b0; stroke-width: 2; }
      .arrow { stroke: #616161; stroke-width: 2; fill: none; marker-end: url(#arrowhead); }
      .label { font-family: Arial; font-size: 14px; fill: #424242; }
      .title { font-family: Arial; font-size: 16px; font-weight: bold; fill: #212121; }
      .code { font-family: 'Courier New'; font-size: 12px; fill: #212121; }
      .table-header { font-family: Arial; font-size: 14px; font-weight: bold; fill: #ffffff; }
      .table-cell { font-family: Arial; font-size: 12px; fill: #212121; }
    </style>
    <marker id="arrowhead" markerWidth="10" markerHeight="7" refX="9" refY="3.5" orient="auto">
      <polygon points="0 0, 10 3.5, 0 7" fill="#616161" />
    </marker>
  </defs>
  
  <!-- Title -->
  <text x="400" y="30" text-anchor="middle" class="title" style="font-size: 24px;">Props vs State in React</text>
  
  <!-- Left Side: Props -->
  <rect x="100" y="70" width="250" height="60" rx="5" ry="5" class="props" />
  <text x="225" y="105" text-anchor="middle" class="title">Props</text>
  
  <!-- Right Side: State -->
  <rect x="450" y="70" width="250" height="60" rx="5" ry="5" class="state" />
  <text x="575" y="105" text-anchor="middle" class="title">State</text>
  
  <!-- Parent Component (for Props) -->
  <rect x="50" y="170" width="150" height="80" rx="5" ry="5" class="component" />
  <text x="125" y="200" text-anchor="middle" class="title">Parent</text>
  <text x="125" y="220" text-anchor="middle" class="code">Component</text>
  <text x="125" y="240" text-anchor="middle" class="code">&lt;User name="Akshay" /&gt;</text>
  
  <!-- Child Component (for Props) -->
  <rect x="250" y="170" width="150" height="80" rx="5" ry="5" class="component" />
  <text x="325" y="200" text-anchor="middle" class="title">Child</text>
  <text x="325" y="220" text-anchor="middle" class="code">Component</text>
  <text x="325" y="240" text-anchor="middle" class="code">props.name</text>
  
  <!-- Component with State -->
  <rect x="500" y="170" width="150" height="80" rx="5" ry="5" class="component" />
  <text x="575" y="200" text-anchor="middle" class="title">Component</text>
  <text x="575" y="220" text-anchor="middle" class="code">const [count, setCount]</text>
  <text x="575" y="240" text-anchor="middle" class="code">= useState(0);</text>
  
  <!-- Props Flow Arrow -->
  <path d="M 200 210 L 250 210" class="arrow" />
  <text x="225" y="200" text-anchor="middle" class="label">Passes</text>
  
  <!-- State Update Arrow -->
  <path d="M 575 250 C 575 280 625 280 625 250 L 625 210" class="arrow" />
  <text x="650" y="270" text-anchor="middle" class="label">Updates</text>
  
  <!-- Comparison Table -->
  <!-- Table Header -->
  <rect x="100" y="300" width="600" height="30" fill="#0288d1" />
  <text x="225" y="320" text-anchor="middle" class="table-header">Props</text>
  <text x="575" y="320" text-anchor="middle" class="table-header">State</text>
  
  <!-- Table Rows -->
  <!-- Row 1 -->
  <rect x="100" y="330" width="250" height="30" fill="#e1f5fe" />
  <rect x="350" y="330" width="350" height="30" fill="#f3e5f5" />
  <text x="225" y="350" text-anchor="middle" class="table-cell">Passed from parent to child</text>
  <text x="575" y="350" text-anchor="middle" class="table-cell">Managed within the component</text>
  
  <!-- Row 2 -->
  <rect x="100" y="360" width="250" height="30" fill="#e1f5fe" />
  <rect x="350" y="360" width="350" height="30" fill="#f3e5f5" />
  <text x="225" y="380" text-anchor="middle" class="table-cell">Read-only (immutable)</text>
  <text x="575" y="380" text-anchor="middle" class="table-cell">Mutable (can be changed)</text>
  
  <!-- Row 3 -->
  <rect x="100" y="390" width="250" height="30" fill="#e1f5fe" />
  <rect x="350" y="390" width="350" height="30" fill="#f3e5f5" />
  <text x="225" y="410" text-anchor="middle" class="table-cell">Accessed via props parameter</text>
  <text x="575" y="410" text-anchor="middle" class="table-cell">Accessed via useState hook or this.state</text>
  
  <!-- Row 4 -->
  <rect x="100" y="420" width="250" height="30" fill="#e1f5fe" />
  <rect x="350" y="420" width="350" height="30" fill="#f3e5f5" />
  <text x="225" y="440" text-anchor="middle" class="table-cell">Changes come from outside</text>
  <text x="575" y="440" text-anchor="middle" class="table-cell">Changes are made inside the component</text>
  
  <!-- Row 5 -->
  <rect x="100" y="450" width="250" height="30" fill="#e1f5fe" />
  <rect x="350" y="450" width="350" height="30" fill="#f3e5f5" />
  <text x="225" y="470" text-anchor="middle" class="table-cell">Used to customize a component</text>
  <text x="575" y="470" text-anchor="middle" class="table-cell">Used to track information that changes</text>
</svg>