<svg xmlns="http://www.w3.org/2000/svg" xmlns:xlink="http://www.w3.org/1999/xlink" version="1.1" width="800" height="500" viewBox="0 0 800 500">
  <!-- Styles -->
  <defs>
    <style type="text/css">
      .parent { fill: #e1f5fe; stroke: #0288d1; stroke-width: 2; }
      .child { fill: #e8f5e9; stroke: #388e3c; stroke-width: 2; }
      .props { fill: #fff9c4; stroke: #fbc02d; stroke-width: 2; }
      .lifecycle { fill: #f3e5f5; stroke: #9c27b0; stroke-width: 2; }
      .arrow { stroke: #616161; stroke-width: 2; fill: none; marker-end: url(#arrowhead); }
      .dashed { stroke-dasharray: 5,5; }
      .label { font-family: Arial; font-size: 14px; fill: #424242; }
      .title { font-family: Arial; font-size: 16px; font-weight: bold; fill: #212121; }
      .code { font-family: 'Courier New'; font-size: 12px; fill: #212121; }
    </style>
    <marker id="arrowhead" markerWidth="10" markerHeight="7" refX="9" refY="3.5" orient="auto">
      <polygon points="0 0, 10 3.5, 0 7" fill="#616161" />
    </marker>
  </defs>
  
  <!-- Title -->
  <text x="400" y="30" text-anchor="middle" class="title" style="font-size: 24px;">Props Flow in React Class Components</text>
  
  <!-- Parent Component -->
  <rect x="300" y="60" width="200" height="60" rx="5" ry="5" class="parent" />
  <text x="400" y="95" text-anchor="middle" class="title">About Component</text>
  
  <!-- JSX in Parent -->
  <rect x="250" y="140" width="300" height="60" rx="5" ry="5" class="props" />
  <text x="400" y="165" text-anchor="middle" class="title">JSX in Parent</text>
  <text x="400" y="190" text-anchor="middle" class="code">&lt;UserClass name="Gurpreet" location="Lucknow" /&gt;</text>
  
  <!-- Props Object -->
  <rect x="100" y="230" width="200" height="80" rx="5" ry="5" class="props" />
  <text x="200" y="255" text-anchor="middle" class="title">Props Object</text>
  <text x="200" y="280" text-anchor="middle" class="code">{ </text>
  <text x="200" y="300" text-anchor="middle" class="code">  name: "Gurpreet",</text>
  <text x="200" y="320" text-anchor="middle" class="code">  location: "Lucknow"</text>
  <text x="200" y="340" text-anchor="middle" class="code">}</text>
  
  <!-- Child Component -->
  <rect x="500" y="230" width="200" height="80" rx="5" ry="5" class="child" />
  <text x="600" y="255" text-anchor="middle" class="title">UserClass Component</text>
  <text x="600" y="280" text-anchor="middle" class="code">class UserClass extends</text>
  <text x="600" y="300" text-anchor="middle" class="code">React.Component {</text>
  <text x="600" y="320" text-anchor="middle" class="code">  // Component code</text>
  <text x="600" y="340" text-anchor="middle" class="code">}</text>
  
  <!-- Lifecycle Methods -->
  <rect x="100" y="340" width="600" height="140" rx="5" ry="5" class="lifecycle" />
  <text x="400" y="365" text-anchor="middle" class="title">Lifecycle Methods and Props Access</text>
  
  <!-- Constructor -->
  <text x="150" y="390" text-anchor="start" class="code">constructor(props) {</text>
  <text x="150" y="410" text-anchor="start" class="code">  super(props);</text>
  <text x="150" y="430" text-anchor="start" class="code">  console.log(this.props.name); // "Gurpreet"</text>
  <text x="150" y="450" text-anchor="start" class="code">}</text>
  
  <!-- Render -->
  <text x="450" y="390" text-anchor="start" class="code">render() {</text>
  <text x="450" y="410" text-anchor="start" class="code">  return (</text>
  <text x="450" y="430" text-anchor="start" class="code">    &lt;h2&gt;Name: {this.props.name}&lt;/h2&gt;</text>
  <text x="450" y="450" text-anchor="start" class="code">  );</text>
  <text x="450" y="470" text-anchor="start" class="code">}</text>
  
  <!-- Arrows -->
  <path d="M 400 120 L 400 140" class="arrow" />
  <text x="420" y="130" text-anchor="start" class="label">Renders</text>
  
  <path d="M 250 170 L 200 170 L 200 230" class="arrow" />
  <text x="180" y="200" text-anchor="end" class="label">Creates</text>
  
  <path d="M 550 170 L 600 170 L 600 230" class="arrow" />
  <text x="620" y="200" text-anchor="start" class="label">Instantiates</text>
  
  <path d="M 300 280 L 500 280" class="arrow" />
  <text x="400" y="270" text-anchor="middle" class="label">Passed to</text>
  
  <path d="M 200 340 L 200 390" class="arrow" />
  <text x="180" y="365" text-anchor="end" class="label">Available in</text>
  
  <path d="M 600 340 L 600 390" class="arrow" />
  <text x="620" y="365" text-anchor="start" class="label">Used in</text>
</svg>